<?xml version="1.0" encoding="utf-8"?>
<!-- Generator: Adobe Illustrator 26.0.3, SVG Export Plug-In . SVG Version: 6.00 Build 0)  -->
<svg version="1.1" id="Capa_1" xmlns="http://www.w3.org/2000/svg" xmlns:xlink="http://www.w3.org/1999/xlink" x="0px" y="0px"
	 viewBox="0 0 864.8 610.3" style="enable-background:new 0 0 864.8 610.3;" xml:space="preserve">
<style type="text/css">
	.st0{fill:#FFFFFF;}
</style>
<g>
	<path class="st0" d="M712.1,150.2H580c-50.6,0-97.4,27.1-122.6,71L457.2,7.5h-18.5l0.3,214.7c-38.3-68-124.5-92.1-192.5-53.8
		S154.4,293,192.7,361s124.5,92.1,192.5,53.8c28.8-16.2,51-42.1,62.8-73c19.7,51.7,67.8,87.2,123,90.8l0.2,165.5h18.5l-0.3-236.5
		c38.7,67.8,125,91.5,192.8,52.8c67.8-38.7,91.5-125,52.8-192.8C809.8,177.4,762.9,150.2,712.1,150.2z M315.8,414.4
		c-67.9,0-122.9-55-122.9-122.9s55-122.9,122.9-122.9s122.9,55,122.9,122.9C438.6,359.4,383.6,414.4,315.8,414.4z M570.9,414.1
		c-63.9-4.8-113.4-57.8-113.8-121.9h0.4V282c5.1-63.9,58.4-113.2,122.5-113.3h62.3c-44.2,25.1-71.5,72-71.5,122.9l0,0L570.9,414.1z
		 M712.1,414.4c-67.8-0.1-122.8-55-122.9-122.8l0,0c0.1-67.8,55-122.7,122.8-122.9h0.1c67.9,0,122.9,55,122.9,122.9
		S780,414.4,712.1,414.4L712.1,414.4z"/>
	<g id="Grupo_152">
		<path id="Trazado_225" class="st0" d="M34.4,476.4c2.1,1.4,3.6,3.3,4.5,5.7V463h8.9v46.9H39v-7.3c-0.9,2.3-2.5,4.3-4.5,5.7
			c-2.2,1.5-4.9,2.2-7.6,2.1c-2.8,0-5.6-0.7-8-2.2c-2.4-1.5-4.4-3.7-5.6-6.2c-2.7-6.1-2.7-13.1,0-19.2c1.2-2.6,3.1-4.7,5.6-6.2
			c2.4-1.5,5.2-2.2,8-2.2C29.5,474.3,32.2,475,34.4,476.4z M22.9,484.9c-3.4,4.4-3.4,10.5,0,14.9c3.7,3.6,9.7,3.6,13.4-0.1
			c3.5-4.3,3.5-10.5,0-14.8c-1.7-1.8-4.2-2.8-6.7-2.8C27.1,482,24.7,483,22.9,484.9L22.9,484.9z"/>
		<path id="Trazado_226" class="st0" d="M88.7,494.1H62.9c-0.1,2.5,0.8,5,2.5,6.9c1.6,1.5,3.7,2.3,5.8,2.2c1.8,0.1,3.7-0.5,5.2-1.5
			c1.4-1,2.3-2.5,2.6-4.1h9.4c-0.5,2.4-1.5,4.7-3,6.6c-1.6,2-3.6,3.5-5.9,4.6c-5.5,2.4-11.8,2.2-17.1-0.5c-2.6-1.4-4.8-3.6-6.2-6.2
			c-3-6.1-3-13.1,0-19.2c1.4-2.6,3.6-4.8,6.2-6.2c2.8-1.5,6-2.2,9.1-2.2c3.2-0.1,6.3,0.7,9.1,2.2c2.5,1.4,4.6,3.4,6,5.9
			c1.5,2.6,2.2,5.6,2.2,8.6C89,492.1,88.9,493.1,88.7,494.1z M77.7,483.6c-1.6-1.5-3.8-2.3-6-2.2c-2.2-0.1-4.4,0.7-6.1,2.2
			c-1.8,1.7-2.7,4.1-2.7,6.5H80C80.3,487.7,79.5,485.3,77.7,483.6L77.7,483.6z"/>
		<path id="Trazado_227" class="st0" d="M124.3,476.5c2.4,1.5,4.4,3.7,5.6,6.2c2.7,6.1,2.7,13.1,0,19.2c-1.2,2.6-3.1,4.7-5.6,6.2
			c-2.4,1.5-5.2,2.2-8,2.2c-2.7,0.1-5.3-0.7-7.6-2.1c-2.1-1.4-3.6-3.4-4.5-5.7v7.3h-8.9V463h8.9v19.1c0.8-2.3,2.4-4.3,4.5-5.7
			c2.3-1.4,4.9-2.2,7.6-2.1C119.1,474.3,121.9,475,124.3,476.5z M106.9,484.9c-1.8,2-2.8,4.7-2.6,7.5c-0.1,2.7,0.8,5.4,2.6,7.4
			c3.7,3.7,9.7,3.7,13.4,0.1c1.8-2.1,2.7-4.7,2.5-7.5c0.2-2.7-0.7-5.4-2.5-7.5C116.5,481.2,110.6,481.2,106.9,484.9L106.9,484.9z"/>
		<path id="Trazado_228" class="st0" d="M138.7,461.2c2.4-1.8,5.6-1.8,8,0c1,0.9,1.6,2.2,1.5,3.5c0,1.3-0.5,2.6-1.5,3.5
			c-2.4,1.8-5.6,1.8-8,0c-1-0.9-1.6-2.1-1.5-3.5C137.2,463.4,137.7,462.1,138.7,461.2z M147.1,474.8v35.1h-8.9v-35.1H147.1z"/>
		<path id="Trazado_229" class="st0" d="M196.2,478.1c3.1,2.5,5.1,6.1,5.7,10h-9.5c-0.3-1.7-1.2-3.3-2.6-4.4
			c-1.5-1.1-3.3-1.7-5.1-1.6c-2.3,0-4.4,0.9-5.9,2.6c-3.2,4.6-3.2,10.8,0,15.4c1.5,1.7,3.7,2.7,5.9,2.6c1.9,0.1,3.7-0.5,5.1-1.7
			c1.4-1.1,2.3-2.7,2.6-4.4h9.5c-0.6,3.9-2.6,7.5-5.7,10c-3.2,2.5-7.2,3.8-11.3,3.7c-3.2,0.1-6.3-0.7-9.1-2.2
			c-2.6-1.4-4.8-3.6-6.2-6.2c-3-6.1-3-13.1,0-19.2c1.4-2.6,3.6-4.8,6.2-6.2c2.8-1.5,6-2.2,9.1-2.2C189,474.2,193,475.5,196.2,478.1z
			"/>
		<path id="Trazado_230" class="st0" d="M233.7,476.5c2.7,1.4,4.9,3.6,6.4,6.2c1.6,2.9,2.4,6.3,2.3,9.6c0.1,3.3-0.7,6.6-2.3,9.6
			c-1.5,2.7-3.7,4.8-6.4,6.2c-5.8,2.9-12.6,2.9-18.5,0c-2.7-1.4-4.9-3.6-6.4-6.2c-1.6-2.9-2.4-6.2-2.3-9.6c-0.1-3.4,0.7-6.7,2.3-9.6
			c1.5-2.7,3.7-4.8,6.4-6.2C221,473.6,227.9,473.6,233.7,476.5z M218.1,484.7c-3.5,4.5-3.5,10.8,0,15.3c3.5,3.5,9.1,3.5,12.6,0.1
			c0,0,0,0,0.1-0.1c3.5-4.5,3.5-10.8,0-15.3C227.3,481.2,221.6,481.2,218.1,484.7C218.1,484.7,218.1,484.7,218.1,484.7z"/>
		<path id="Trazado_231" class="st0" d="M270.1,476.4c2.1,1.4,3.6,3.3,4.5,5.7V463h8.9v46.9h-8.9v-7.3c-0.9,2.3-2.5,4.3-4.5,5.7
			c-2.3,1.5-4.9,2.2-7.6,2.1c-2.8,0-5.6-0.7-8-2.2c-2.4-1.5-4.4-3.7-5.5-6.2c-2.7-6.1-2.7-13.1,0-19.2c1.2-2.6,3.1-4.7,5.5-6.2
			c2.4-1.5,5.2-2.2,8-2.2C265.2,474.3,267.9,475,270.1,476.4z M258.6,484.9c-3.4,4.4-3.4,10.5,0,14.9c3.7,3.6,9.7,3.6,13.4-0.1
			c3.5-4.3,3.5-10.5,0-14.8c-1.7-1.8-4.2-2.8-6.7-2.8C262.8,482,260.4,483,258.6,484.9z"/>
		<path id="Trazado_232" class="st0" d="M305.8,476.2c2.2-1.3,4.7-2,7.2-1.9v9.6h-2.6c-6.6,0-9.8,3-9.8,9.1v16.9h-8.9v-35.1h8.9v6.7
			C301.9,479.3,303.7,477.5,305.8,476.2z"/>
		<path id="Trazado_233" class="st0" d="M318.5,461.2c2.4-1.8,5.6-1.8,8,0c1,0.9,1.6,2.2,1.5,3.5c0,1.3-0.5,2.6-1.5,3.5
			c-2.4,1.8-5.6,1.8-8,0c-1-0.9-1.6-2.1-1.5-3.5C316.9,463.4,317.5,462.1,318.5,461.2z M326.9,474.8v35.1H318v-35.1H326.9z"/>
		<path id="Trazado_234" class="st0" d="M356.4,476.4c2.1,1.3,3.7,3.3,4.5,5.7v-7.3h8.9v35.1h-8.9v-7.3c-0.9,2.3-2.4,4.3-4.5,5.7
			c-2.3,1.5-4.9,2.2-7.6,2.1c-2.8,0-5.6-0.7-8-2.2c-2.4-1.5-4.4-3.7-5.5-6.2c-2.7-6.1-2.7-13.1,0-19.2c1.2-2.6,3.1-4.7,5.5-6.2
			c2.4-1.5,5.2-2.2,8-2.2C351.5,474.3,354.1,475,356.4,476.4z M344.9,484.9c-1.8,2.1-2.7,4.8-2.5,7.5c-0.2,2.7,0.8,5.4,2.5,7.5
			c3.7,3.6,9.7,3.6,13.4-0.1c1.8-2,2.8-4.7,2.6-7.4c0.1-2.7-0.8-5.4-2.6-7.5c-1.7-1.8-4.2-2.8-6.7-2.8
			C349.1,482,346.6,483,344.9,484.9z"/>
		<path id="Trazado_235" class="st0" d="M408.5,478.3c2.6,3.2,3.9,7.2,3.6,11.2v20.4h-8.9v-19.4c0.1-2.4-0.6-4.7-2.2-6.5
			c-1.5-1.6-3.7-2.4-5.9-2.3c-2.3-0.1-4.5,0.8-6.1,2.5c-1.6,2-2.5,4.5-2.3,7.1v18.7h-8.9v-35.1h8.9v7c0.9-2.3,2.5-4.3,4.6-5.5
			c2.2-1.4,4.8-2.1,7.4-2C402.5,474.1,406.1,475.6,408.5,478.3z"/>
		<path id="Trazado_236" class="st0" d="M442.4,477.6c2.6,2.2,4.3,5.3,4.8,8.6h-8.4c-0.3-1.6-1.1-3-2.3-4.1c-1.3-1.1-3-1.6-4.6-1.5
			c-1.3-0.1-2.5,0.3-3.5,1.1c-0.9,0.7-1.3,1.8-1.3,2.9c0,0.9,0.3,1.8,1,2.3c0.7,0.6,1.6,1.1,2.5,1.4c1,0.3,2.5,0.8,4.4,1.2
			c2.2,0.5,4.4,1.1,6.5,1.9c1.7,0.7,3.2,1.7,4.3,3.1c1.3,1.6,1.9,3.7,1.8,5.7c0.1,2.9-1.2,5.6-3.5,7.3c-2.8,2-6.1,3-9.5,2.8
			c-3.9,0.2-7.8-0.9-11-3.1c-2.8-2.1-4.6-5.3-5-8.8h8.6c0.1,1.6,1,3.1,2.3,4.1c1.5,1.1,3.3,1.6,5.1,1.5c1.3,0.1,2.5-0.3,3.5-1.1
			c0.8-0.7,1.3-1.8,1.2-2.9c0-0.9-0.4-1.8-1-2.5c-0.8-0.7-1.6-1.2-2.6-1.5c-1-0.3-2.5-0.7-4.4-1.2c-2.2-0.5-4.3-1.1-6.4-1.8
			c-1.6-0.6-3.1-1.6-4.2-2.9c-1.2-1.6-1.9-3.6-1.8-5.6c-0.1-2.9,1.2-5.6,3.5-7.4c2.8-2,6.2-3.1,9.6-2.9
			C435.8,474.2,439.5,475.3,442.4,477.6z"/>
		<path id="Trazado_237" class="st0" d="M474.9,509.9l-11.6-15.3v15.3h-8.9V463h8.9v26.4l11.5-14.6h10.6l-14.8,17.5l15.2,17.6
			L474.9,509.9z"/>
		<path id="Trazado_238" class="st0" d="M496.1,474.8l9.6,23.8l8.9-23.8h9.8l-21.5,51.9H493l7.9-17.8l-14.8-34.1H496.1z"/>
		<path id="Trazado_239" class="st0" d="M336.9,552.6c2.4,1.5,4.3,3.7,5.5,6.2c2.7,6.1,2.7,13.1,0,19.2c-1.2,2.6-3.1,4.8-5.5,6.2
			c-2.4,1.5-5.2,2.2-8,2.2c-2.7,0.1-5.3-0.7-7.6-2.1c-2.1-1.4-3.6-3.4-4.5-5.7v24.1H308v-51.9h8.9v7.3c0.8-2.3,2.4-4.3,4.5-5.7
			c2.3-1.4,4.9-2.2,7.6-2.1C331.8,550.4,334.5,551.1,336.9,552.6z M319.5,561c-3.5,4.3-3.5,10.5,0,14.8c1.7,1.8,4.2,2.8,6.7,2.8
			c2.5,0.1,5-0.9,6.7-2.7c3.4-4.4,3.4-10.5,0-14.9c-1.7-1.8-4.2-2.8-6.7-2.7C323.6,558.2,321.2,559.2,319.5,561z"/>
		<path id="Trazado_240" class="st0" d="M359.8,539.1v47h-8.9v-47H359.8z"/>
		<path id="Trazado_241" class="st0" d="M393.4,552.6c2.7,1.4,4.9,3.6,6.4,6.2c1.6,2.9,2.4,6.3,2.3,9.6c0.1,3.3-0.7,6.6-2.3,9.6
			c-1.5,2.7-3.7,4.8-6.4,6.2c-5.8,2.9-12.7,2.9-18.5,0c-2.7-1.4-4.9-3.6-6.4-6.2c-3.1-6-3.1-13.2,0-19.2c1.5-2.7,3.7-4.8,6.4-6.2
			C380.7,549.7,387.5,549.7,393.4,552.6z M377.8,560.8c-3.5,4.5-3.5,10.8,0,15.3c3.5,3.5,9.1,3.5,12.6,0c0,0,0,0,0,0
			c3.5-4.5,3.5-10.8,0-15.3C387,557.3,381.3,557.3,377.8,560.8z"/>
		<path id="Trazado_242" class="st0" d="M427.2,578.3v7.7h-4.7c-3.3,0.2-6.5-0.8-9-2.8c-2.1-1.9-3.1-5.1-3.1-9.5v-15.3h-4.9v-7.5
			h4.9v-8.7h8.9v8.7h7.9v7.5h-7.9v15.3c-0.1,1.3,0.2,2.5,1,3.5c1,0.8,2.2,1.1,3.4,1L427.2,578.3z"/>
		<path id="Trazado_243" class="st0" d="M454.2,586.1l-11.6-15.3v15.3h-8.9v-47h8.9v26.4l11.5-14.6h10.6L450,568.3l15.2,17.7H454.2z
			"/>
		<path id="Trazado_244" class="st0" d="M469.9,537.3c2.4-1.8,5.6-1.8,8,0c1,0.9,1.6,2.2,1.5,3.5c0,1.3-0.5,2.6-1.5,3.5
			c-2.4,1.8-5.6,1.8-8,0c-1-0.9-1.5-2.1-1.5-3.5C468.4,539.5,468.9,538.2,469.9,537.3z M478.4,550.9v35.2h-9v-35.2L478.4,550.9z"/>
		<path id="Trazado_245" class="st0" d="M517.1,554.4c2.6,3.1,3.9,7.2,3.6,11.2v20.5h-8.9v-19.4c0.1-2.4-0.6-4.7-2.2-6.5
			c-1.5-1.6-3.7-2.4-5.9-2.3c-2.3-0.1-4.5,0.8-6.1,2.5c-1.6,2-2.4,4.5-2.3,7.1v18.6h-8.9v-35.2h8.9v7c0.9-2.3,2.5-4.3,4.6-5.5
			c2.2-1.4,4.8-2.1,7.4-2C511.1,550.2,514.6,551.7,517.1,554.4z"/>
	</g>
</g>
</svg>
